<svg xmlns="http://www.w3.org/2000/svg" version="1.1" xmlns:xlink="http://www.w3.org/1999/xlink" xmlns:svgjs="http://svgjs.dev/svgjs" width="2000" height="1500" viewBox="0 0 2000 1500"><rect width="2000" height="1500" fill="#ffffff"></rect><g transform="matrix(0.75,0,0,0.75,249.090909090909,282.7536437246963)"><svg viewBox="0 0 396 247" data-background-color="#ffffff" preserveAspectRatio="xMidYMid meet" height="1247" width="2000" xmlns="http://www.w3.org/2000/svg" xmlns:xlink="http://www.w3.org/1999/xlink"><g id="tight-bounds" transform="matrix(1,0,0,1,0.2400000000000091,-0.09999999999999432)"><svg viewBox="0 0 395.52 247.2" height="247.2" width="395.52"><g><svg></svg></g><g><svg viewBox="0 0 395.52 247.2" height="247.2" width="395.52"><g transform="matrix(1,0,0,1,0,99.00521921397379)"><svg viewBox="0 0 395.52 49.189561572052405" height="49.189561572052405" width="395.52"><g><svg viewBox="0 0 395.52 49.189561572052405" height="49.189561572052405" width="395.52"><g><svg viewBox="0 0 395.52 49.189561572052405" height="49.189561572052405" width="395.52"><g id="textblocktransform"><svg viewBox="0 0 395.52 49.189561572052405" height="49.189561572052405" width="395.52" id="textblock"><g><svg viewBox="0 0 395.52 49.189561572052405" height="49.189561572052405" width="395.52"><g transform="matrix(1,0,0,1,0,0)"><svg width="395.52" viewBox="5.7 -35.3 286.23 35.599999999999994" height="49.189561572052405" data-palette-color="#4648e5"><g class="undefined-text-0" data-fill-palette-color="primary" id="text-0"><path d="M9.4-3.2L30.45-3.2 30.45 0 5.7 0 5.7-35 29.7-35 29.7-31.8 9.4-31.8 9.4-19.35 27.5-19.35 27.5-16.2 9.4-16.2 9.4-3.2ZM72.45-35L75.5-35 75.5 0 71.95 0 71.95-28 58.2-4.45 56.45-4.45 42.7-27.85 42.7 0 39.15 0 39.15-35 42.2-35 57.4-9.05 72.45-35ZM100-35Q106.7-35 110.5-31.8 114.3-28.6 114.3-23L114.3-23Q114.3-17.4 110.5-14.23 106.7-11.05 100-11.05L100-11.05 90.6-11.05 90.6 0 86.9 0 86.9-35 100-35ZM99.9-14.3Q105.1-14.3 107.85-16.57 110.6-18.85 110.6-23L110.6-23Q110.6-27.25 107.85-29.53 105.1-31.8 99.9-31.8L99.9-31.8 90.6-31.8 90.6-14.3 99.9-14.3ZM138.09 0.3Q132.89 0.3 128.67-2.02 124.44-4.35 122.07-8.4 119.69-12.45 119.69-17.5L119.69-17.5Q119.69-22.55 122.07-26.6 124.44-30.65 128.67-32.98 132.89-35.3 138.09-35.3L138.09-35.3Q143.29-35.3 147.47-33 151.64-30.7 154.04-26.63 156.44-22.55 156.44-17.5L156.44-17.5Q156.44-12.45 154.04-8.38 151.64-4.3 147.47-2 143.29 0.3 138.09 0.3L138.09 0.3ZM138.09-3Q142.24-3 145.59-4.88 148.94-6.75 150.84-10.08 152.74-13.4 152.74-17.5L152.74-17.5Q152.74-21.6 150.84-24.93 148.94-28.25 145.59-30.13 142.24-32 138.09-32L138.09-32Q133.94-32 130.57-30.13 127.19-28.25 125.27-24.93 123.34-21.6 123.34-17.5L123.34-17.5Q123.34-13.4 125.27-10.08 127.19-6.75 130.57-4.88 133.94-3 138.09-3L138.09-3ZM192.69 0L188.64 0 180.64-11.25Q179.29-11.1 177.84-11.1L177.84-11.1 168.44-11.1 168.44 0 164.74 0 164.74-35 177.84-35Q184.54-35 188.34-31.8 192.14-28.6 192.14-23L192.14-23Q192.14-18.9 190.07-16.07 187.99-13.25 184.14-12L184.14-12 192.69 0ZM177.74-14.25Q182.94-14.25 185.69-16.55 188.44-18.85 188.44-23L188.44-23Q188.44-27.25 185.69-29.53 182.94-31.8 177.74-31.8L177.74-31.8 168.44-31.8 168.44-14.25 177.74-14.25ZM200.89 0L200.89-35 204.59-35 204.59 0 200.89 0ZM230.09 0.3Q223.29 0.3 219.49-3.6 215.69-7.5 215.69-14.95L215.69-14.95 215.69-35 219.39-35 219.39-15.1Q219.39-9 222.14-6 224.89-3 230.09-3L230.09-3Q235.34-3 238.09-6 240.84-9 240.84-15.1L240.84-15.1 240.84-35 244.44-35 244.44-14.95Q244.44-7.5 240.66-3.6 236.89 0.3 230.09 0.3L230.09 0.3ZM288.88-35L291.93-35 291.93 0 288.38 0 288.38-28 274.63-4.45 272.88-4.45 259.13-27.85 259.13 0 255.58 0 255.58-35 258.63-35 273.83-9.05 288.88-35Z" fill="#4648e5" data-fill-palette-color="primary"></path></g></svg></g></svg></g></svg></g></svg></g></svg></g></svg></g><g mask="url(&quot;#a89af73d-f4d0-48bc-8cbe-0fddd465158b&quot;)"><g transform="matrix(3.072681704260652, 0, 0, 3.072681704260652, 51.84350692065462, 0.9999999999999858)"><svg xmlns="http://www.w3.org/2000/svg" xmlns:xlink="http://www.w3.org/1999/xlink" version="1.1" x="0" y="0" viewBox="2.4999999999999996 10 94.97664068296704 79.8" style="enable-background:new 0 0 100 100;" xml:space="preserve" height="79.8" width="94.97664068296704" class="icon-none" data-fill-palette-color="accent" id="none"><path d="M87.5 71.4H36.6L35 64.8h50.8c1.2 0 2.3-0.8 2.5-2L97.4 26c0.2-0.8 0-1.6-0.5-2.2s-1.3-1-2.1-1H24.6L21.9 12c-0.3-1.2-1.3-2-2.5-2H5.1c-1.4 0-2.6 1.2-2.6 2.6s1.2 2.6 2.6 2.6h12.2l14 56.7c-3.5 1.3-6 4.7-6 8.6 0 5.1 4.2 9.3 9.3 9.3 5.1 0 9.3-4.2 9.3-9.3 0-1.5-0.4-2.8-1-4h36.2c-0.6 1.2-1 2.6-1 4 0 5.1 4.2 9.3 9.3 9.3 5.1 0 9.3-4.2 9.3-9.3C96.7 75.6 92.6 71.4 87.5 71.4zM25.8 27.9h65.7l-7.8 31.7H33.7L25.8 27.9zM38.7 80.7c0 2.2-1.8 4-4 4-2.2 0-4-1.8-4-4s1.8-4 4-4C36.9 76.6 38.7 78.4 38.7 80.7zM87.5 84.7c-2.2 0-4-1.8-4-4s1.8-4 4-4c2.2 0 4 1.8 4 4S89.7 84.7 87.5 84.7z" fill="#4846e5" data-fill-palette-color="accent"></path></svg></g></g></svg></g><defs><mask id="a89af73d-f4d0-48bc-8cbe-0fddd465158b"><rect width="640" height="400" fill="white"></rect><rect width="435.072" height="72.4145114474201" fill="black" y="87.39274427628995" x="-19.77600000000001" id="transform-me"></rect></mask></defs></svg><rect width="395.52" height="247.2" fill="none" stroke="none" visibility="hidden"></rect></g></svg></g></svg>